<svg xmlns:mydata="http://www.w3.org/2000/svg" mydata:contrastcolor="ffffff" mydata:template="Contrast" mydata:presentation="2.5" mydata:layouttype="undefined" mydata:specialfontid="undefined" mydata:id1="228" mydata:id2="227" mydata:companyname="Pair Code" mydata:companytagline="" version="1.1" xmlns="http://www.w3.org/2000/svg" xmlns:xlink="http://www.w3.org/1999/xlink" viewBox="0 0 500 500">
	<g fill="#222223" fill-rule="none" stroke="none" stroke-width="1" stroke-linecap="butt" stroke-linejoin="miter" stroke-miterlimit="10" stroke-dasharray="" stroke-dashoffset="0" font-family="none" font-weight="none" font-size="none" text-anchor="none" style="mix-blend-mode: normal">
		<g data-paper-data="{&quot;isGlobalGroup&quot;:true,&quot;bounds&quot;:{&quot;x&quot;:50,&quot;y&quot;:50,&quot;width&quot;:400,&quot;height&quot;:400}}">
			<g data-paper-data="{&quot;isIcon&quot;:&quot;true&quot;,&quot;iconType&quot;:&quot;icon&quot;,&quot;rawIconId&quot;:&quot;1676493&quot;,&quot;selectedEffects&quot;:{&quot;container&quot;:&quot;circle_simple_filledplus&quot;,&quot;transformation&quot;:&quot;&quot;,&quot;pattern&quot;:&quot;&quot;},&quot;combineTerms&quot;:&quot;undefined&quot;,&quot;isDetailed&quot;:false,&quot;fillRule&quot;:&quot;nonzero&quot;,&quot;blockLetter&quot;:&quot;O&quot;,&quot;blockLetterId&quot;:0,&quot;relativeBoundsIconToContainer&quot;:{&quot;top&quot;:-2.617697490212998e-7,&quot;left&quot;:0.037347781937035154},&quot;widthRatioIconToContainer&quot;:0.6876789223975067,&quot;heightRatioIconToContainer&quot;:0.6959874595570563,&quot;bounds&quot;:{&quot;x&quot;:199.28516947624377,&quot;y&quot;:159.2851718661368,&quot;width&quot;:151.4294657852704,&quot;height&quot;:151.42955664301803},&quot;iconStyle&quot;:&quot;standalone&quot;,&quot;suitableAsStandaloneIcon&quot;:true}" fill-rule="nonzero">
				<path d="M207.7218,234.99995c0,-37.15668 30.12144,-67.27811 67.27811,-67.27811c37.15668,0 67.27811,30.12144 67.27811,67.27811c0,37.15668 -30.12144,67.27811 -67.27811,67.27811c-37.15668,0 -67.27811,-30.12144 -67.27811,-67.27811zM268.02474,230.60307c1.17546,-0.00115 2.26118,-0.62874 2.84891,-1.64677l12.03786,-20.84807c0.58839,-1.01902 0.58839,-2.27452 0,-3.29353l-12.03786,-20.86454c-0.58773,-1.01803 -1.67344,-1.64562 -2.84891,-1.64677h-24.0922c-1.15785,0.01861 -2.22066,0.64389 -2.7995,1.64677l-12.10374,20.86454c-0.58839,1.01902 -0.58839,2.27452 0,3.29353l12.10374,20.84807c0.58773,1.01803 1.67345,1.64562 2.84891,1.64677zM317.32895,210.84187h-24.0428c-1.17546,0.00115 -2.26118,0.62874 -2.84891,1.64677l-12.03786,20.86454c-0.58839,1.01902 -0.58839,2.27452 0,3.29353l12.03786,20.86454c0.58773,1.01803 1.67344,1.64562 2.84891,1.64677h24.0922c1.17546,-0.00115 2.26118,-0.62874 2.84891,-1.64677l12.05433,-20.86454c0.58839,-1.01902 0.58839,-2.27452 0,-3.29353h-0.03294l-12.0708,-20.86454c-0.58773,-1.01803 -1.67345,-1.64562 -2.84891,-1.64677zM243.93255,287.69649h24.0922c1.17546,-0.00115 2.26118,-0.62874 2.84891,-1.64677l12.03786,-20.86454c0.58839,-1.01902 0.58839,-2.27452 0,-3.29353l-12.03786,-20.84807c-0.58773,-1.01803 -1.67344,-1.64562 -2.84891,-1.64677h-24.0428c-1.17546,0.00115 -2.26118,0.62874 -2.84891,1.64677l-12.10374,20.84807c-0.58839,1.01902 -0.58839,2.27452 0,3.29353l12.10374,20.86454c0.57884,1.00288 1.64166,1.62816 2.7995,1.64677zM350.70039,236.49188l-0.01792,0.75594l-0.02525,0.75635l-0.03259,0.75594l-0.03992,0.75554l-0.04725,0.75554l-0.05498,0.75473l-0.06231,0.75432l-0.06965,0.75391l-0.07739,0.7531l-0.08513,0.75269l-0.09246,0.75147l-0.10019,0.75065l-0.10753,0.74983l-0.11567,0.74821l-0.1226,0.7474l-0.13074,0.74617l-0.13807,0.74495l-0.14581,0.74332l-0.15314,0.74169l-0.16089,0.74047l-0.16862,0.73843l-0.17595,0.7368l-0.18328,0.73518l-0.19102,0.73273l-0.19836,0.7311l-0.20569,0.72907l-0.21342,0.72662l-0.22075,0.72458l-0.22768,0.72255l-0.23501,0.7197l-0.24234,0.71725l-0.24968,0.71522l-0.2566,0.71236l-0.26393,0.70952l-0.27045,0.70707l-0.27777,0.70381l-0.28429,0.70137l-0.29122,0.69851l-0.17188,0.40282l-0.30018,0.69038l-0.30873,0.69078l-0.31565,0.68793l-0.32217,0.68467l-0.32909,0.68182l-0.33602,0.67856l-0.34254,0.67489l-0.34946,0.67164l-0.35639,0.66838l-0.3629,0.66472l-0.36942,0.66104l-0.37635,0.65697l-0.38286,0.65331l-0.38979,0.64964l-0.3959,0.64557l-0.40282,0.64149l-0.40934,0.63742l-0.41545,0.63335l-0.42237,0.62887l-0.42848,0.6248l-0.43459,0.61991l-0.44111,0.61583l-0.44722,0.61136l-0.45373,0.60647l-0.45943,0.60199l-0.46554,0.59751l-0.47124,0.59262l-0.47776,0.58774l-0.48305,0.58284l-0.48916,0.57795l-0.49446,0.57307l-0.50057,0.56818l-0.50546,0.56289l-0.51157,0.558l-0.51646,0.55311l-0.52216,0.54782l-0.52704,0.54252l-0.53234,0.53764l-0.30954,0.30792l-0.53804,0.52704l-0.54537,0.5242l-0.55067,0.5189l-0.55556,0.5136l-0.56085,0.50831l-0.56574,0.50261l-0.57062,0.49731l-0.57592,0.49161l-0.5804,0.48591l-0.5857,0.4798l-0.59017,0.4741l-0.59507,0.46839l-0.59995,0.46228l-0.60443,0.45617l-0.60932,0.45006l-0.6138,0.44395l-0.61787,0.43744l-0.62276,0.43133l-0.62684,0.42522l-0.63131,0.41829l-0.63579,0.41218l-0.63946,0.40567l-0.64394,0.39915l-0.6476,0.39263l-0.65168,0.38571l-0.65575,0.3796l-0.65942,0.37268l-0.66308,0.36576l-0.66634,0.35924l-0.67042,0.35232l-0.67367,0.3458l-0.67693,0.33928l-0.68019,0.33195l-0.68345,0.32543l-0.6867,0.31851l-0.68956,0.31199l-0.69241,0.30507l-0.69567,0.29814l-0.68711,0.28674l-0.70096,0.2847l-0.70422,0.27818l-0.70666,0.27085l-0.70952,0.26393l-0.71236,0.2566l-0.7144,0.25008l-0.71725,0.24234l-0.7197,0.23542l-0.72214,0.22849l-0.72458,0.22075l-0.72662,0.21342l-0.72907,0.2061l-0.73069,0.19876l-0.73314,0.19143l-0.73477,0.18369l-0.7368,0.17595l-0.73843,0.16903l-0.74006,0.16089l-0.74169,0.15396l-0.74332,0.14581l-0.74495,0.13848l-0.74617,0.13074l-0.7474,0.12342l-0.74861,0.11567l-0.74943,0.10793l-0.75065,0.10019l-0.75147,0.09286l-0.75269,0.08553l-0.7531,0.07739l-0.75391,0.07046l-0.75432,0.06231l-0.75513,0.05539l-0.75554,0.04765l-0.75554,0.04033l-0.75594,0.03299l-0.75635,0.02525l-0.75635,0.01833l-0.75635,0.01099l-0.75635,0.00366l-0.74413,-0.00366l-0.75635,-0.01059l-0.75594,-0.01792l-0.75635,-0.02525l-0.75594,-0.03259l-0.75554,-0.03992l-0.75554,-0.04725l-0.75473,-0.05498l-0.75452,-0.06231l-0.75379,-0.06965l-0.75318,-0.07739l-0.75236,-0.08513l-0.75163,-0.09246l-0.75065,-0.10019l-0.74967,-0.10753l-0.74853,-0.11567l-0.7474,-0.1226l-0.74613,-0.13074l-0.74478,-0.13807l-0.74336,-0.14581l-0.74185,-0.15314l-0.74026,-0.16089l-0.73855,-0.16862l-0.7368,-0.17595l-0.73497,-0.18328l-0.73302,-0.19102l-0.73106,-0.19836l-0.72894,-0.20569l-0.72679,-0.21342l-0.72458,-0.22075l-0.72222,-0.22768l-0.7199,-0.23501l-0.71737,-0.24234l-0.71493,-0.24968l-0.71229,-0.2566l-0.70967,-0.26393l-0.70695,-0.27045l-0.70414,-0.27777l-0.70133,-0.28429l-0.69844,-0.29122l-0.40258,-0.17188l-0.69038,-0.30018l-0.6909,-0.30873l-0.68788,-0.31565l-0.68483,-0.32217l-0.68165,-0.32909l-0.67843,-0.33602l-0.6751,-0.34254l-0.67172,-0.34946l-0.66821,-0.35639l-0.66463,-0.3629l-0.66097,-0.36942l-0.65726,-0.37635l-0.65343,-0.38286l-0.64952,-0.38979l-0.64557,-0.3959l-0.64154,-0.40282l-0.63738,-0.40934l-0.63319,-0.41545l-0.62895,-0.42237l-0.62463,-0.42848l-0.62022,-0.43459l-0.61573,-0.44111l-0.61125,-0.44722l-0.60663,-0.45333l-0.60202,-0.45984l-0.59728,-0.46554l-0.59256,-0.47124l-0.58774,-0.47776l-0.58291,-0.48305l-0.578,-0.48916l-0.57305,-0.49446l-0.56808,-0.50057l-0.56307,-0.50546l-0.55801,-0.51157l-0.55293,-0.51646l-0.54782,-0.52216l-0.54269,-0.52704l-0.53751,-0.53234l-0.30841,-0.30995l-0.52684,-0.53764l-0.52423,-0.54537l-0.51898,-0.55067l-0.51364,-0.55556l-0.50823,-0.56085l-0.50273,-0.56574l-0.49715,-0.57103l-0.49153,-0.57552l-0.48582,-0.58081l-0.48,-0.58529l-0.47418,-0.59058l-0.46823,-0.59507l-0.4622,-0.59995l-0.45617,-0.60443l-0.45006,-0.60932l-0.44388,-0.6134l-0.4376,-0.61828l-0.43133,-0.62276l-0.42497,-0.62684l-0.41858,-0.63131l-0.41215,-0.63579l-0.40563,-0.63946l-0.39912,-0.64394l-0.39256,-0.6476l-0.38592,-0.65168l-0.37928,-0.65575l-0.37264,-0.65942l-0.36591,-0.66268l-0.35924,-0.66675l-0.35248,-0.67042l-0.34571,-0.67367l-0.33895,-0.67693l-0.33215,-0.68019l-0.32539,-0.68345l-0.31859,-0.6867l-0.31179,-0.68956l-0.30502,-0.69241l-0.29818,-0.69567l-0.28678,-0.6867l-0.2847,-0.70137l-0.27786,-0.70381l-0.27098,-0.70666l-0.26393,-0.70952l-0.25692,-0.71236l-0.2498,-0.7144l-0.24263,-0.71725l-0.23542,-0.7197l-0.22817,-0.72214l-0.22088,-0.72458l-0.21355,-0.72662l-0.20613,-0.72907l-0.19872,-0.73069l-0.19127,-0.73314l-0.18377,-0.73477l-0.17628,-0.7368l-0.16875,-0.73843l-0.16117,-0.74006l-0.15363,-0.74169l-0.14602,-0.74332l-0.13844,-0.74495l-0.13083,-0.74617l-0.12325,-0.7474l-0.11563,-0.74861l-0.10801,-0.74943l-0.1004,-0.75065l-0.09286,-0.75147l-0.08525,-0.75269l-0.07771,-0.7531l-0.07018,-0.75391l-0.06264,-0.75432l-0.05515,-0.75513l-0.04774,-0.75554l-0.04024,-0.75554l-0.03291,-0.75594l-0.02549,-0.75635l-0.01821,-0.75635l-0.01092,-0.75635l-0.00366,-0.75635l0.00338,-0.74413l0.01063,-0.75635l0.01792,-0.75635l0.02525,-0.75594l0.03259,-0.75594l0.03995,-0.75594l0.04741,-0.75513l0.05486,-0.75513l0.06236,-0.75432l0.06985,-0.75379l0.07743,-0.75314l0.08492,-0.75245l0.09254,-0.75155l0.10012,-0.75069l0.10773,-0.74964l0.11531,-0.74858l0.12292,-0.7474l0.1305,-0.74613l0.13816,-0.74478l0.14573,-0.74336l0.15327,-0.74182l0.16092,-0.74026l0.16842,-0.73855l0.17599,-0.7368l0.18345,-0.73497l0.19098,-0.73306l0.19843,-0.73102l0.20585,-0.72894l0.21326,-0.72682l0.22055,-0.72455l0.22792,-0.72227l0.23513,-0.71986l0.24239,-0.71741l0.24951,-0.71489l0.25664,-0.71232l0.26373,-0.70964l0.27069,-0.70695l0.27762,-0.70414l0.2845,-0.70133l0.29134,-0.69844l0.17143,-0.40237l0.3005,-0.69041l0.30869,-0.6909l0.3155,-0.68788l0.32233,-0.68483l0.32906,-0.68165l0.3359,-0.67843l0.34262,-0.67514l0.34942,-0.67167l0.35619,-0.66821l0.36286,-0.66467l0.36962,-0.66097l0.37626,-0.65726l0.38294,-0.65343l0.38954,-0.64952l0.39614,-0.64557l0.40273,-0.64154l0.40917,-0.63738l0.41569,-0.63323l0.42213,-0.62895l0.42848,-0.62463l0.43479,-0.62019l0.44106,-0.61576l0.44729,-0.61122l0.45345,-0.60664l0.45951,-0.602l0.46559,-0.59731l0.47153,-0.59254l0.4774,-0.58775l0.48326,-0.5829l0.489,-0.578l0.49471,-0.57306l0.50029,-0.56808l0.50578,-0.56307l0.51128,-0.55802l0.51666,-0.55293l0.52191,-0.54781l0.52716,-0.54269l0.53226,-0.53751l0.30999,-0.30836l0.53776,-0.52684l0.54541,-0.52423l0.55059,-0.51898l0.55568,-0.51364l0.56074,-0.50823l0.56578,-0.50273l0.57078,-0.49715l0.57574,-0.49153l0.58066,-0.48582l0.58553,-0.48l0.59036,-0.47418l0.59513,-0.46823l0.59986,-0.4622l0.60453,-0.45617l0.60915,-0.45006l0.6137,-0.44388l0.6182,-0.4376l0.62264,-0.43133l0.62699,-0.42497l0.63127,-0.41858l0.63555,-0.41215l0.63966,-0.40563l0.64378,-0.39912l0.64777,-0.39256l0.65172,-0.38592l0.65559,-0.37932l0.65933,-0.37264l0.66304,-0.36591l0.66662,-0.35924l0.67021,-0.35248l0.67363,-0.34571l0.67701,-0.33895l0.68027,-0.33219l0.68348,-0.32535l0.68658,-0.31863l0.68964,-0.31179l0.69257,-0.30499l0.69543,-0.29823l0.68699,-0.28678l0.70101,-0.2847l0.70397,-0.27786l0.70674,-0.27094l0.70947,-0.26397l0.71217,-0.25689l0.71472,-0.2498l0.71725,-0.24263l0.71974,-0.23546l0.7221,-0.22817l0.72442,-0.22084l0.7267,-0.21355l0.72882,-0.20613l0.73094,-0.19872l0.73293,-0.19127l0.73485,-0.18377l0.73672,-0.17628l0.73851,-0.16875l0.74019,-0.16117l0.74177,-0.15363l0.74332,-0.14602l0.74475,-0.13844l0.74613,-0.13083l0.74735,-0.12325l0.74858,-0.11563l0.74964,-0.10801l0.75065,-0.1004l0.75159,-0.09286l0.75245,-0.08525l0.75322,-0.07771l0.75387,-0.07018l0.75432,-0.06264l0.75513,-0.05515l0.75554,-0.04774l0.75554,-0.04028l0.75594,-0.03287l0.75635,-0.02549l0.75635,-0.01821l0.75635,-0.01092l0.75635,-0.00366l0.74454,0.00338l0.75635,0.01067l0.75594,0.01788l0.75635,0.02525l0.75594,0.03259l0.75554,0.03995l0.75554,0.04741l0.75473,0.0549l0.75473,0.06231l0.75351,0.06989l0.7531,0.07739l0.75269,0.08496l0.75147,0.09254l0.75065,0.10012l0.74983,0.10773l0.74861,0.11531l0.7474,0.12292l0.74577,0.1305l0.74495,0.13816l0.74332,0.14569l0.74169,0.15331l0.74047,0.16089l0.73843,0.16846l0.7368,0.17595l0.73518,0.18349l0.73314,0.19098l0.73069,0.19843l0.72907,0.20585l0.72662,0.21322l0.72458,0.2206l0.72255,0.22789l0.7197,0.23513l0.71766,0.24239l0.71481,0.24951l0.71236,0.25664l0.70952,0.26368l0.70707,0.27069l0.70381,0.27762l0.70137,0.2845l0.69851,0.29134l0.40241,0.17139l0.69038,0.30047l0.69078,0.30869l0.68793,0.31553l0.68467,0.3223l0.68182,0.32909l0.67856,0.33586l0.67489,0.34266l0.67164,0.34942l0.66838,0.35619l0.66472,0.36286l0.66104,0.36962l0.65697,0.37626l0.65371,0.38294l0.64923,0.38958l0.64557,0.39614l0.64149,0.4027l0.63742,0.40922l0.63335,0.41569l0.62887,0.42213l0.6248,0.42848l0.61991,0.43479l0.61583,0.44111l0.61136,0.44725l0.60647,0.45345l0.60199,0.45956l0.59751,0.46554l0.59262,0.47153l0.58774,0.47743l0.58284,0.48326l0.57795,0.489l0.57307,0.49467l0.56818,0.50032l0.56289,0.50578l0.558,0.51128l0.55311,0.51666l0.54782,0.52191l0.54252,0.52716l0.53764,0.53226l0.30833,0.31004l0.52663,0.53772l0.5242,0.54546l0.51931,0.55059l0.5136,0.55567l0.50831,0.56074l0.50261,0.56579l0.4969,0.57076l0.49161,0.57574l0.48591,0.58065l0.48021,0.58553l0.4741,0.59033l0.46799,0.59515l0.46228,0.59987l0.45617,0.60451l0.45006,0.60916l0.44395,0.6137l0.43744,0.61823l0.43133,0.6226l0.42522,0.62699l0.4187,0.63131l0.41178,0.63551l0.40567,0.63971l0.39915,0.64373l0.39263,0.64777l0.38612,0.65172l0.37919,0.65555l0.37268,0.65933l0.36576,0.66304l0.35924,0.66667l0.35272,0.67017l0.34539,0.67363l0.33928,0.67701l0.33195,0.68027l0.32543,0.68348l0.31851,0.68658l0.31199,0.68964l0.30507,0.69253l0.29814,0.69543l0.28674,0.68711l0.2847,0.70101l0.27777,0.70397l0.27126,0.70674l0.26393,0.70947l0.2566,0.71217l0.25008,0.71477l0.24234,0.71725l0.23542,0.71974l0.22809,0.7221l0.22116,0.72442l0.21342,0.72667l0.2061,0.72886l0.19876,0.7309l0.19102,0.73297l0.1841,0.73485l0.17595,0.73677l0.16903,0.73848l0.16089,0.74019l0.15396,0.74177l0.14581,0.74336l0.13848,0.74471l0.13074,0.74613l0.12342,0.74735l0.11567,0.74858l0.10793,0.74964l0.10019,0.75069l0.09286,0.75159l0.08553,0.7524l0.07739,0.75322l0.07046,0.75387l0.06231,0.75432l0.05539,0.75513l0.04765,0.75554l0.04033,0.75554l0.03299,0.75594l0.02525,0.75635l0.01833,0.75635l0.01099,0.75635l0.00366,0.75635v0.0167l-0.00366,0.72744zM347.15892,234.28595l-0.01018,-0.72214l-0.0171,-0.72214l-0.02444,-0.72174l-0.03095,-0.72133l-0.03829,-0.72092l-0.04562,-0.72051l-0.05214,-0.7197l-0.05988,-0.71929l-0.06639,-0.71843l-0.07412,-0.71778l-0.08105,-0.71693l-0.08797,-0.71607l-0.09572,-0.71505l-0.10264,-0.71404l-0.10997,-0.71289l-0.1173,-0.71176l-0.12423,-0.71041l-0.13155,-0.70919l-0.13889,-0.70777l-0.14622,-0.7063l-0.15314,-0.70475l-0.16048,-0.70316l-0.16781,-0.70145l-0.17473,-0.69982l-0.18165,-0.69791l-0.18939,-0.69611l-0.19591,-0.69412l-0.20324,-0.69221l-0.21017,-0.69009l-0.21709,-0.68801l-0.22442,-0.68581l-0.23094,-0.68361l-0.23787,-0.68129l-0.24479,-0.67893l-0.25171,-0.67653l-0.25823,-0.67412l-0.26474,-0.6716l-0.27166,-0.66915l-0.2733,-0.65543l-0.28429,-0.66373l-0.29122,-0.66085l-0.29692,-0.65787l-0.30384,-0.6549l-0.30995,-0.65172l-0.31647,-0.64863l-0.32299,-0.64536l-0.3295,-0.64207l-0.33561,-0.63868l-0.34213,-0.63522l-0.34865,-0.63172l-0.35475,-0.62814l-0.36086,-0.62451l-0.36738,-0.62072l-0.3739,-0.61701l-0.38001,-0.61315l-0.38612,-0.60924l-0.39223,-0.60532l-0.39834,-0.60125l-0.40445,-0.59714l-0.41096,-0.59311l-0.41667,-0.58883l-0.42237,-0.58459l-0.42848,-0.58032l-0.43459,-0.576l-0.44029,-0.57159l-0.44599,-0.56715l-0.45169,-0.56271l-0.45739,-0.55817l-0.46269,-0.55362l-0.4688,-0.54902l-0.47369,-0.54441l-0.47939,-0.53974l-0.48509,-0.53507l-0.48998,-0.53035l-0.49487,-0.52561l-0.50057,-0.52083l-0.5079,-0.51864l-0.28959,-0.29112l-0.51319,-0.50835l-0.51768,-0.50333l-0.52297,-0.49825l-0.52704,-0.49303l-0.53234,-0.48786l-0.53682,-0.48253l-0.54171,-0.47715l-0.54619,-0.47173l-0.55067,-0.46627l-0.55556,-0.46066l-0.56004,-0.45508l-0.56451,-0.44941l-0.56859,-0.44367l-0.57348,-0.43784l-0.57795,-0.43207l-0.58203,-0.42615l-0.5861,-0.42017l-0.59058,-0.41422l-0.59466,-0.40819l-0.59873,-0.40213l-0.6028,-0.39597l-0.60729,-0.38986l-0.61054,-0.38363l-0.61461,-0.37745l-0.61869,-0.37117l-0.62235,-0.3649l-0.62602,-0.35859l-0.62968,-0.35227l-0.63295,-0.34592l-0.63702,-0.33957l-0.63987,-0.33317l-0.64353,-0.32678l-0.64679,-0.32038l-0.65005,-0.31394l-0.6529,-0.30755l-0.65616,-0.30116l-0.65901,-0.29472l-0.66553,-0.28975l-0.37716,-0.1608l-0.66634,-0.27806l-0.66878,-0.27154l-0.67164,-0.26491l-0.67408,-0.25827l-0.67653,-0.25155l-0.67856,-0.24475l-0.68141,-0.23799l-0.68345,-0.23106l-0.68589,-0.22422l-0.68793,-0.21726l-0.68997,-0.21024l-0.692,-0.20324l-0.69404,-0.19619l-0.69608,-0.18911l-0.69811,-0.18202l-0.69974,-0.17486l-0.70137,-0.16772l-0.703,-0.16056l-0.70503,-0.15335l-0.70626,-0.14614l-0.70748,-0.13893l-0.70952,-0.13168l-0.71033,-0.12451l-0.71155,-0.11722l-0.71318,-0.11001l-0.714,-0.10276l-0.71522,-0.09555l-0.71603,-0.08834l-0.71684,-0.08114l-0.71807,-0.07397l-0.71847,-0.06676l-0.71929,-0.05963l-0.72011,-0.0525l-0.72051,-0.04538l-0.72092,-0.03833l-0.72133,-0.03124l-0.72174,-0.02427l-0.72214,-0.01727l-0.72255,-0.0103l-0.71073,-0.00342l-0.72255,0.00338l-0.72214,0.01027l-0.72214,0.01719l-0.72174,0.02419l-0.72133,0.0312l-0.72092,0.03824l-0.72011,0.04533l-0.72011,0.05242l-0.71929,0.05955l-0.71843,0.06671l-0.71778,0.07388l-0.71693,0.08105l-0.71603,0.08831l-0.7151,0.09547l-0.714,0.10268l-0.71294,0.10997l-0.71171,0.11714l-0.71045,0.12443l-0.70914,0.13164l-0.70777,0.13885l-0.7063,0.14605l-0.70475,0.15331l-0.70316,0.16048l-0.70149,0.16765l-0.69974,0.17481l-0.69798,0.18194l-0.69608,0.18907l-0.69416,0.19615l-0.69216,0.2032l-0.69009,0.21021l-0.68801,0.21721l-0.68581,0.22414l-0.68357,0.23106l-0.68129,0.23794l-0.67896,0.24475l-0.67653,0.25151l-0.67408,0.25823l-0.6716,0.26491l-0.66915,0.27159l-0.65543,0.27342l-0.66369,0.28446l-0.66085,0.29085l-0.65791,0.29725l-0.65486,0.30368l-0.65176,0.31012l-0.64863,0.31651l-0.64536,0.32291l-0.64207,0.32934l-0.63868,0.3357l-0.63522,0.34209l-0.63172,0.34845l-0.62814,0.3548l-0.62451,0.36111l-0.62076,0.36742l-0.61698,0.37365l-0.61319,0.37993l-0.60924,0.38616l-0.60529,0.39231l-0.60125,0.39842l-0.59719,0.40457l-0.59307,0.41064l-0.58883,0.41663l-0.58464,0.42261l-0.58032,0.42852l-0.57599,0.43443l-0.57159,0.44021l-0.56716,0.44599l-0.56269,0.45174l-0.55818,0.45736l-0.55362,0.46297l-0.54903,0.46852l-0.5444,0.47397l-0.53975,0.47939l-0.53506,0.48473l-0.53034,0.48998l-0.52561,0.49524l-0.52084,0.50035l-0.51863,0.50799l-0.29108,0.28942l-0.50834,0.51313l-0.50334,0.51792l-0.49821,0.5227l-0.49308,0.52746l-0.48782,0.53219l-0.48253,0.53689l-0.47719,0.54157l-0.47173,0.54621l-0.46624,0.55083l-0.46069,0.55541l-0.45508,0.55995l-0.44937,0.56445l-0.44367,0.56891l-0.43789,0.57334l-0.43202,0.57771l-0.42615,0.58203l-0.42017,0.58631l-0.41422,0.59055l-0.40819,0.59469l-0.40208,0.59881l-0.39602,0.60289l-0.38983,0.60691l-0.38363,0.61083l-0.37745,0.61474l-0.37117,0.61852l-0.3649,0.62231l-0.35859,0.62598l-0.35227,0.62964l-0.34592,0.63319l-0.33953,0.63665l-0.33317,0.64011l-0.32678,0.64345l-0.32038,0.64675l-0.31394,0.64997l-0.30755,0.65306l-0.30116,0.6562l-0.29472,0.65914l-0.28972,0.66549l-0.16092,0.37736l-0.2781,0.6663l-0.27154,0.66891l-0.26491,0.67148l-0.25827,0.674l-0.25155,0.67644l-0.24475,0.67889l-0.23799,0.68121l-0.2311,0.68348l-0.22418,0.68573l-0.21726,0.68793l-0.21024,0.69005l-0.20329,0.69212l-0.19619,0.69412l-0.18911,0.69603l-0.18202,0.69795l-0.17486,0.6997l-0.16772,0.70145l-0.16056,0.70316l-0.15335,0.70475l-0.14614,0.7063l-0.13893,0.70772l-0.13168,0.70914l-0.12447,0.71049l-0.11726,0.71176l-0.11001,0.71294l-0.10276,0.71407l-0.09555,0.7151l-0.08834,0.71607l-0.08114,0.71701l-0.07393,0.71782l-0.0668,0.7188l-0.05959,0.71929l-0.0525,0.7197l-0.04541,0.72051l-0.03829,0.72092l-0.03128,0.72174l-0.02424,0.72174l-0.01727,0.72214l-0.0103,0.72214l-0.00342,0.71073l0.00338,0.72255l0.01027,0.72214l0.01719,0.72214l0.02419,0.72174l0.0312,0.72133l0.03824,0.72092l0.04533,0.72011l0.05242,0.72011l0.05955,0.71929l0.06671,0.71847l0.07388,0.71766l0.08105,0.71684l0.08831,0.71603l0.09547,0.71522l0.10272,0.714l0.10993,0.71277l0.11714,0.71196l0.12443,0.71033l0.13164,0.70911l0.13885,0.70789l0.14605,0.70626l0.15331,0.70462l0.16048,0.70341l0.16765,0.70137l0.17481,0.69974l0.18198,0.69811l0.18907,0.69608l0.19612,0.69404l0.2032,0.692l0.21024,0.69038l0.21717,0.68793l0.22418,0.68589l0.23106,0.68345l0.2379,0.68141l0.24475,0.67896l0.25151,0.67653l0.25827,0.67408l0.26491,0.67164l0.27154,0.66919l0.27346,0.65534l0.28446,0.66349l0.29085,0.66104l0.29725,0.65779l0.30368,0.65493l0.31007,0.65168l0.31651,0.64883l0.32291,0.64516l0.32934,0.64231l0.3357,0.63865l0.34209,0.63498l0.34845,0.63172l0.3548,0.62805l0.36111,0.6248l0.36738,0.62072l0.3737,0.61706l0.37993,0.61299l0.38612,0.60932l0.39231,0.60525l0.39846,0.60118l0.40453,0.59751l0.41064,0.59303l0.41663,0.58855l0.42261,0.58488l0.42852,0.5804l0.43443,0.57592l0.44021,0.57144l0.44599,0.56737l0.45174,0.56248l0.45736,0.5584l0.46297,0.55352l0.46848,0.54904l0.47401,0.54415l0.47935,0.54008l0.48473,0.53478l0.49002,0.53031l0.49524,0.52582l0.50032,0.52093l0.508,0.51849l0.28946,0.29122l0.51313,0.50831l0.51793,0.50342l0.5227,0.49813l0.52745,0.49284l0.5322,0.48794l0.53689,0.48265l0.54157,0.47695l0.54623,0.47206l0.55083,0.46595l0.5554,0.46066l0.55996,0.45536l0.56445,0.44925l0.56894,0.44354l0.57331,0.43784l0.57772,0.43214l0.58199,0.42603l0.58635,0.42033l0.59055,0.41422l0.59469,0.40811l0.59881,0.40201l0.60289,0.3963l0.60691,0.38979l0.61083,0.38368l0.61474,0.37716l0.61852,0.37146l0.62227,0.36494l0.62602,0.35843l0.62961,0.35232l0.63319,0.3458l0.63669,0.33969l0.64007,0.33317l0.64349,0.32666l0.64671,0.32055l0.64997,0.31403l0.6531,0.30751l0.65611,0.301l0.65917,0.29489l0.66544,0.28959l0.37745,0.16089l0.66634,0.27818l0.66891,0.27166l0.67148,0.26474l0.674,0.25823l0.67644,0.25171l0.67889,0.24479l0.68117,0.23787l0.68357,0.23094l0.68569,0.22442l0.68797,0.21709l0.69005,0.21017l0.69208,0.20324l0.69416,0.19632l0.69603,0.18898l0.69791,0.18206l0.69974,0.17514l0.70145,0.1674l0.70316,0.16089l0.70475,0.15314l0.7063,0.14622l0.70772,0.13889l0.70914,0.13155l0.71049,0.12463l0.71176,0.1173l0.71294,0.10997l0.71407,0.10264l0.7151,0.09572l0.71607,0.08838l0.71701,0.08105l0.71782,0.07372l0.71864,0.0668l0.71929,0.05988l0.72011,0.05214l0.72051,0.04562l0.72092,0.03829l0.72133,0.03136l0.72174,0.02403l0.72214,0.01751l0.72255,0.01018l0.71033,0.00326l0.72255,-0.00326l0.72214,-0.01018l0.72214,-0.0171l0.72174,-0.02444l0.72133,-0.03095l0.72092,-0.03829l0.72011,-0.04562l0.72011,-0.05214l0.71929,-0.05988l0.71847,-0.06639l0.71766,-0.07412l0.71684,-0.08105l0.71603,-0.08797l0.71522,-0.09572l0.714,-0.10264l0.71277,-0.10997l0.71196,-0.1173l0.71033,-0.12423l0.70911,-0.13155l0.70789,-0.13889l0.70626,-0.14622l0.70462,-0.15314l0.70341,-0.16048l0.70137,-0.16781l0.69974,-0.17473l0.69811,-0.18165l0.69608,-0.18939l0.69404,-0.19591l0.69241,-0.20324l0.68997,-0.21017l0.68793,-0.21709l0.68589,-0.22442l0.68345,-0.23094l0.68141,-0.23787l0.67896,-0.24479l0.67653,-0.2513l0.67408,-0.25823l0.67164,-0.26515l0.66919,-0.27126l0.65575,-0.2737l0.66349,-0.28429l0.66104,-0.29122l0.65779,-0.29692l0.65493,-0.30384l0.65168,-0.30995l0.64842,-0.31688l0.64557,-0.32258l0.6419,-0.3295l0.63865,-0.33561l0.63538,-0.34213l0.63172,-0.34865l0.62805,-0.35475l0.62439,-0.36086l0.62113,-0.36738l0.61665,-0.3739l0.6134,-0.38001l0.60932,-0.38612l0.60525,-0.39223l0.60118,-0.39834l0.5971,-0.40485l0.59303,-0.41056l0.58896,-0.41667l0.58447,-0.42237l0.5804,-0.42889l0.57592,-0.43418l0.57185,-0.44029l0.56696,-0.44599l0.56289,-0.45169l0.558,-0.45739l0.55352,-0.4631l0.54904,-0.46839l0.54456,-0.4741l0.53967,-0.47939l0.53519,-0.48469l0.53031,-0.48998l0.52542,-0.49527l0.52093,-0.50016l0.51849,-0.5079l0.29122,-0.28959l0.50831,-0.51319l0.50342,-0.51768l0.49813,-0.52256l0.49284,-0.52786l0.48794,-0.53193l0.48265,-0.53682l0.47695,-0.54171l0.47206,-0.54619l0.46595,-0.55067l0.46066,-0.55556l0.45536,-0.56004l0.44925,-0.56451l0.44354,-0.569l0.43784,-0.57307l0.43214,-0.57795l0.42603,-0.58203l0.42033,-0.5861l0.41422,-0.59058l0.40811,-0.59466l0.40201,-0.59873l0.3963,-0.60321l0.38979,-0.60647l0.38368,-0.61095l0.37716,-0.61461l0.37146,-0.61869l0.36494,-0.62235l0.35843,-0.62602l0.35232,-0.62968l0.3458,-0.63295l0.33969,-0.63702l0.33317,-0.63987l0.32666,-0.64353l0.32055,-0.64679l0.31403,-0.65005l0.30751,-0.6529l0.301,-0.65616l0.29489,-0.65901l0.28959,-0.66553l0.16089,-0.37757l0.27818,-0.66634l0.27166,-0.66878l0.26474,-0.67164l0.25823,-0.67408l0.25171,-0.67653l0.24479,-0.67856l0.23787,-0.68141l0.23094,-0.68345l0.22442,-0.68589l0.21709,-0.68793l0.21057,-0.68997l0.20324,-0.692l0.19591,-0.69404l0.18939,-0.69608l0.18165,-0.69811l0.17514,-0.69974l0.1674,-0.70137l0.16089,-0.703l0.15314,-0.70503l0.14622,-0.70626l0.13889,-0.70748l0.13155,-0.70952l0.12463,-0.71033l0.1173,-0.71155l0.10997,-0.71318l0.10264,-0.714l0.09572,-0.71522l0.08838,-0.71603l0.08105,-0.71684l0.07372,-0.71807l0.0668,-0.71847l0.05988,-0.71929l0.05214,-0.72011l0.04562,-0.72051l0.03829,-0.72092l0.03136,-0.72133l0.02403,-0.72174l0.01751,-0.72214l0.01018,-0.72255l0.00326,-0.71033v-0.0167z" data-paper-data="{&quot;isPathIcon&quot;:true}"></path>
			</g>
			<g data-paper-data="{&quot;isPrimaryText&quot;:true}" fill-rule="nonzero">
				<path d="M182.23831,202.2274c1.84001,-5.21527 0.64319,-9.92551 -4.5347,-11.75233l-2.14966,-0.75843c-5.1405,-1.81363 -9.17764,1.05 -11.01765,6.26527l-3.1788,9.00989l25.30995,8.92966l1.95872,-5.55174l-7.60794,-2.68417zM168.85104,197.69338c0.85735,-2.43005 2.69458,-3.16915 4.99378,-2.35796l1.27111,0.44846c2.43005,0.85735 3.57925,2.545 2.68893,5.06851l-1.16072,3.28992l-8.95381,-3.15902z" data-paper-data="{&quot;glyphName&quot;:&quot;P&quot;,&quot;glyphIndex&quot;:0,&quot;firstGlyphOfWord&quot;:true,&quot;word&quot;:1}"></path>
				<path d="M212.00167,169.52863l-25.76399,-10.74222l-5.25401,6.58522l16.18315,22.75057l3.91887,-4.9118l-3.55077,-4.73482l5.14275,-6.44577l5.40513,2.41063zM187.10629,164.88066l11.35537,5.02795l-3.91887,4.9118z" data-paper-data="{&quot;glyphName&quot;:&quot;A&quot;,&quot;glyphIndex&quot;:1,&quot;word&quot;:1}"></path>
				<path d="M210.59244,136.62647l-4.84231,3.3482l15.26419,22.0757l4.84231,-3.3482z" data-paper-data="{&quot;glyphName&quot;:&quot;I&quot;,&quot;glyphIndex&quot;:2,&quot;word&quot;:1}"></path>
				<path d="M229.85443,126.47235l8.19862,25.55611l5.60574,-1.79837l-2.63397,-8.21042l3.17092,-1.01726l6.55987,6.95096l6.05872,-1.94369l-7.70522,-7.66601c2.17194,-1.92498 3.24446,-4.74629 2.13637,-8.20033l-0.52679,-1.64208c-1.66515,-5.1905 -6.36862,-6.67924 -11.65349,-4.98381zM240.31222,127.9886c2.24607,-0.72056 4.08693,0.02117 4.80749,2.26724l0.55707,1.73646c0.72661,2.26494 -0.33314,3.95803 -2.57921,4.67859l-3.43516,1.10203l-2.78535,-8.68228z" data-paper-data="{&quot;glyphName&quot;:&quot;R&quot;,&quot;glyphIndex&quot;:3,&quot;lastGlyphOfWord&quot;:true,&quot;word&quot;:1}"></path>
				<path d="M303.45641,143.23705c-0.90736,0.06148 -3.03161,0.11533 -5.14031,-0.35541c-2.94057,-0.65644 -4.55971,-2.6833 -3.93351,-5.48844l1.84406,-8.26067c0.6478,-2.90188 3.04844,-4.19386 5.67948,-3.60652c2.18608,0.48801 4.12221,1.54982 4.60568,1.84054l1.72429,-4.44884c-0.63599,-0.42631 -2.85142,-1.69265 -5.73395,-2.33613c-5.41683,-1.20922 -10.61972,0.89921 -11.93691,6.79969l-2.05136,9.18927c-1.24377,5.5716 2.43516,9.744 7.75526,10.93163c2.55365,0.57006 5.00885,0.67133 6.70543,0.44076z" data-paper-data="{&quot;glyphName&quot;:&quot;C&quot;,&quot;glyphIndex&quot;:4,&quot;firstGlyphOfWord&quot;:true,&quot;word&quot;:2}"></path>
				<path d="M317.44411,145.09272c-3.08324,5.08485 -1.09324,9.9078 4.11026,13.06299c5.22045,3.16546 10.43398,2.71045 13.51722,-2.3744l4.95375,-8.16966c3.07297,-5.0679 1.07629,-9.91808 -4.14416,-13.08354c-5.2035,-3.15519 -10.41036,-2.67294 -13.48332,2.39496zM327.52075,139.8671c1.36691,-2.25428 3.54867,-2.83222 5.9555,-1.37282c2.40683,1.4594 2.92004,3.67146 1.55313,5.92574l-5.09763,8.40695c-1.36691,2.25428 -3.5759,2.83889 -5.98273,1.37949c-2.40683,-1.4594 -2.89281,-3.67813 -1.5259,-5.93242z" data-paper-data="{&quot;glyphName&quot;:&quot;O&quot;,&quot;glyphIndex&quot;:5,&quot;word&quot;:2}"></path>
				<path d="M339.70052,171.26714l5.95239,7.52403c3.7141,4.69475 8.43553,6.31782 13.09919,2.62832l7.36858,-5.82941c4.29056,-3.39434 4.29496,-8.75611 0.58087,-13.45086l-5.95239,-7.52403zM355.14939,176.73774c-2.00537,1.58648 -4.16165,1.32091 -6.0187,-1.02647l-2.13991,-2.70492l13.77333,-10.89632l2.13991,2.70492c2.10301,2.65828 0.77986,5.17101 -1.24106,6.76979z" data-paper-data="{&quot;glyphName&quot;:&quot;D&quot;,&quot;glyphIndex&quot;:6,&quot;word&quot;:2}"></path>
				<path d="M357.81577,197.74584l5.47869,16.0588l4.70883,-1.60648l-3.57139,-10.46823l5.85321,-1.99691l3.30897,9.69906l4.40866,-1.50408l-3.30897,-9.69906l5.72188,-1.9521l3.43698,10.07427l4.70883,-1.60648l-5.34428,-15.66483z" data-paper-data="{&quot;glyphName&quot;:&quot;E&quot;,&quot;glyphIndex&quot;:7,&quot;lastGlyphOfWord&quot;:true,&quot;word&quot;:2}"></path>
			</g>
			<g data-paper-data="{&quot;isContainerElementsWrapper&quot;:true}" fill-rule="evenodd">
				<path d="M275.00005,106c-17.4858,0 -34.22587,3.38252 -50.22022,10.14757c-15.43632,6.52894 -29.10188,15.7408 -40.99666,27.6356c-11.89479,11.89479 -21.10666,25.56034 -27.6356,40.99666c-6.76505,15.99435 -10.14757,32.73442 -10.14757,50.22022c-0.0001,17.48543 3.38246,34.22497 10.14747,50.21972c6.529,15.43652 15.7409,29.10204 27.63569,40.99656c11.89478,11.89519 25.56033,21.10715 40.99666,27.63589c15.99435,6.76518 32.73442,10.14777 50.22022,10.14777c17.48603,0 34.22597,-3.38226 50.21972,-10.14777c15.43652,-6.52874 29.10204,-15.7407 40.99656,-27.63589c11.89519,-11.89453 21.10715,-25.56005 27.63589,-40.99656c6.76518,-15.99441 10.14777,-32.73432 10.14777,-50.21972c0,-17.48563 -3.38226,-34.22567 -10.14678,-50.22022c-6.5304,-15.43635 -15.7417,-29.10187 -27.63589,-40.99666c-11.89519,-11.89486 -25.56071,-21.10672 -40.99656,-27.6356c-15.99441,-6.76505 -32.73465,-10.14757 -50.22072,-10.14757zM216.54236,176.54236c-15.79469,15.79463 -23.86228,34.78994 -24.20278,56.98593h-43.38781c0.1845,-16.55593 3.48677,-32.42316 9.90678,-47.60178c6.3799,-15.08382 15.3819,-28.4378 27.006,-40.06195c11.62415,-11.6241 24.97814,-20.6261 40.06195,-27.006c15.62786,-6.61003 31.98571,-9.91505 49.07354,-9.91505c17.08756,0 33.44524,3.30502 49.07304,9.91505c15.08385,6.37983 28.43787,15.38183 40.06208,27.00598c11.62421,11.62416 20.6263,24.97816 27.00627,40.06197c6.42048,15.17842 9.72271,31.04568 9.90668,47.60178h-43.38756c-0.34072,-22.19609 -8.40833,-41.19143 -24.20283,-56.98593c-16.14252,-16.14269 -35.62842,-24.21403 -58.45769,-24.21403c-22.8292,0 -42.3151,8.07134 -58.45769,24.21403zM275.00005,155.2719c22.01633,0 40.80817,7.78394 56.37553,23.35182c15.56869,15.56802 23.35303,34.36013 23.35303,56.37633h-0.001c0,22.01596 -7.78368,40.80817 -23.35104,56.37653c-15.56802,15.56736 -34.3602,23.35104 -56.37653,23.35104c-22.01636,0 -40.80847,-7.78368 -56.37633,-23.35104c-15.56788,-15.56802 -23.35182,-34.3602 -23.35182,-56.37653h0c0,-22.01633 7.78394,-40.80844 23.35182,-56.37633c15.56789,-15.56788 34.36,-23.35182 56.37633,-23.35182zM171.77042,271.46558c1.83997,5.21535 5.72752,8.13236 10.90542,6.30525l2.1497,-0.75814c5.1405,-1.81417 6.48686,-6.57722 4.64685,-11.79258l-3.1788,-9.01006l-25.30994,8.93036l1.95872,5.55109l7.60794,-2.68389zM383.59287,281.04848l5.47836,-16.0595l-4.70926,-1.60595l-3.57155,10.46856l-5.85295,-1.99748l3.30953,-9.69847l-4.40939,-1.50433l-3.30854,9.69847l-5.72244,-1.95165l3.43705,-10.07405l-4.70826,-1.60695l-5.34487,15.66499zM185.03894,266.59493c0.85735,2.43084 -0.10929,4.15834 -2.40853,4.97028l-1.27111,0.44831c-2.43005,0.85677 -4.38389,0.26401 -5.27413,-2.25949l-1.16073,-3.28961l8.95377,-3.1591zM367.01233,308.10655l-5.95258,7.52465l-21.04871,-16.65227l5.95258,-7.52366c3.71401,-4.69531 8.93335,-5.92468 13.22418,-2.53047l7.36824,5.82904c4.66343,3.6901 4.17029,8.65838 0.45628,13.3527zM190.71203,317.45733l16.19553,-22.73535l-5.25403,-6.58519l-25.77638,10.72659l3.91894,4.91249l5.40514,-2.41092l5.14271,6.44572l-3.55077,4.73516zM363.21464,305.43063c1.857,-2.34716 1.6199,-4.50603 -0.38555,-6.09305l-6.51346,-5.15259c-2.02139,-1.59898 -4.77103,-2.3083 -6.8741,0.34968l-2.13994,2.70481l13.77312,10.89595zM200.77257,294.21588l-7.42414,9.9555l-3.91887,-4.91249zM220.78887,308.27592l4.84226,3.34839l-15.2642,22.07484l-4.84226,-3.34739zM322.60362,333.41621c3.08338,5.08485 8.27981,5.55009 13.48321,2.39498c5.22033,-3.16607 7.22777,-7.99887 4.14439,-13.08371l-4.95434,-8.17022c-3.07243,-5.06791 -8.29675,-5.53913 -13.51708,-2.37406c-5.2034,3.15511 -7.18294,7.99488 -4.11052,13.06279zM322.62853,322.06497c-1.36685,-2.25451 -0.87072,-4.45621 1.53621,-5.91572c2.40693,-1.4595 4.60565,-0.89164 5.9725,1.36287l5.0978,8.40733c1.36685,2.25351 0.86375,4.48311 -1.54319,5.94261c-2.40693,1.45851 -4.59868,0.86375 -5.96553,-1.38976zM237.93199,318.34897l-8.19862,25.55573l5.60568,1.79922l2.63398,-8.21107l3.17095,1.01717l1.29193,9.47032l6.05868,1.94368l-1.80749,-10.71763c2.88643,-0.30286 5.40006,-1.97357 6.50808,-5.42755l0.52682,-1.64182c1.66513,-5.19045 -1.29442,-9.13758 -6.57932,-10.83319zM302.26325,344.80033c2.10906,-0.47023 4.0089,-1.42264 4.8039,-1.86398l1.5651,4.46418c-1.43758,0.9295 -3.70305,1.88191 -6.25643,2.45276c-5.31996,1.18753 -10.42433,-1.02414 -11.66805,-6.59615l-2.05137,-9.18938c-1.31724,-5.90077 2.4951,-10.02125 7.91229,-11.23069c2.88214,-0.64358 5.42556,-0.43934 6.18271,-0.32378l0.33175,4.76007c-0.56188,-0.05778 -2.76558,-0.19526 -4.95135,0.2919c-2.63109,0.58779 -4.25447,2.77853 -3.60671,5.6796l1.84435,8.26088c0.62564,2.80543 2.95288,3.95112 5.8938,3.29459zM245.55597,325.6664c2.24604,0.72029 3.31182,2.39398 2.59134,4.64052l-0.5571,1.73646c-0.72666,2.26447 -2.57351,3.0256 -4.81964,2.30532l-3.43516,-1.10285l2.78541,-8.68229z" data-paper-data="{&quot;isBaseLogoContainer&quot;:true}"></path>
			</g>
		</g>
	</g>
</svg>